HIERARCHY
ROOT hip
{
	OFFSET 0.000000 0.000000 0.000000 
	CHANNELS 6 Xposition Yposition Zposition Xrotation Zrotation Yrotation
	JOINT abdomen
	{
		OFFSET 0.000000 3.402643 0.000000 
		CHANNELS 3 Xrotation Zrotation Yrotation
		JOINT chest
		{
			OFFSET 0.000000 8.438565 -0.680529 
			CHANNELS 3 Xrotation Zrotation Yrotation
			JOINT neck
			{
				OFFSET 0.000000 10.207942 -0.272212 
				CHANNELS 3 Xrotation Zrotation Yrotation
				JOINT head
				{
					OFFSET 0.000000 3.130431 0.000000 
					CHANNELS 3 Xrotation Zrotation Yrotation
					End Site
					{
						OFFSET 0.000000 3.130435 0.000000 
					}
				}
			}
			JOINT lCollar
			{
				OFFSET 3.470700 6.669187 -0.816635 
				CHANNELS 3 Yrotation Zrotation Xrotation
				JOINT lShldr
				{
					OFFSET 3.198488 0.000000 0.000000 
					CHANNELS 3 Zrotation Yrotation Xrotation
					JOINT lForeArm
					{
						OFFSET 10.139888 0.000000 0.000000 
						CHANNELS 3 Yrotation Zrotation Xrotation
						JOINT lHand
						{
							OFFSET 8.370511 0.000000 0.000000 
							CHANNELS 3 Zrotation Yrotation Xrotation
							End Site
							{
								OFFSET 4.083176 0.000000 0.000000 
							}
						}
					}
				}
			}
			JOINT rCollar
			{
				OFFSET -3.470700 6.669187 -0.816635 
				CHANNELS 3 Yrotation Zrotation Xrotation
				JOINT rShldr
				{
					OFFSET -3.198488 0.000000 0.000000 
					CHANNELS 3 Zrotation Yrotation Xrotation
					JOINT rForeArm
					{
						OFFSET -10.139888 0.000000 0.000000 
						CHANNELS 3 Yrotation Zrotation Xrotation
						JOINT rHand
						{
							OFFSET -8.370511 0.000000 0.000000 
							CHANNELS 3 Zrotation Yrotation Xrotation
							End Site
							{
								OFFSET -4.083176 0.000000 0.000000 
							}
						}
					}
				}
			}
		}
	}
	JOINT lThigh
	{
		OFFSET 5.308129 -1.633274 1.361059 
		CHANNELS 3 Xrotation Zrotation Yrotation
		JOINT lShin
		{
			OFFSET -2.041588 -20.007561 0.000000 
			CHANNELS 3 Xrotation Zrotation Yrotation
			JOINT lFoot
			{
				OFFSET 0.000000 -19.190928 -1.224953 
				CHANNELS 3 Xrotation Yrotation Zrotation
				End Site
				{
					OFFSET 0.000000 -2.449906 4.627600 
				}
			}
		}
	}
	JOINT rThigh
	{
		OFFSET -5.308129 -1.633274 1.361059 
		CHANNELS 3 Xrotation Zrotation Yrotation
		JOINT rShin
		{
			OFFSET 2.041588 -20.007561 0.000000 
			CHANNELS 3 Xrotation Zrotation Yrotation
			JOINT rFoot
			{
				OFFSET 0.000000 -19.190928 -1.224953 
				CHANNELS 3 Xrotation Yrotation Zrotation
				End Site
				{
					OFFSET 0.000000 -2.449906 4.627600 
				}
			}
		}
	}
}
MOTION
Frames: 10
Frame Time: 0.033333
-0.829944 49.283684 0.457950 -10.597587 -1.556342 5.089722 0.000000 0.000000 0.000000 11.372806 4.776841 7.183630 35.708702 -2.431592 -0.361831 -21.632393 2.117757 2.071785 -5.458538 10.574655 24.991011 -91.110809 10.066390 -0.710578 -52.014923 5.499944 77.926407 -18.185059 -8.915501 -55.405945 -8.378075 -11.782139 22.732075 71.842133 6.462070 72.418037 34.431202 -41.662083 43.328636 37.569466 -0.922364 -80.774902 11.275126 9.657169 20.389927 36.419720 30.552591 5.931703 10.228486 -47.097397 -1.325126 28.821693 8.640946 3.434018 5.689500 -1.786549 -0.797357 8.946207 4.635020 7.252765 
-0.861718 49.292892 0.463903 -10.566942 -1.868436 4.797461 0.000000 0.000000 0.000000 11.334179 5.047479 7.245368 35.700047 -2.539009 -0.371595 -21.808014 2.185789 2.267328 -5.377478 10.299048 24.997637 -91.091476 10.213090 -0.709892 -52.237698 5.479728 77.752083 -18.265257 -8.932039 -55.411606 -8.183385 -11.751264 22.775530 71.810852 6.624629 72.359978 34.382355 -41.758278 43.620457 37.813454 -0.878892 -80.796227 11.827061 10.015939 20.519325 35.242809 31.027069 6.132806 10.581353 -48.833286 0.394198 28.951447 8.992999 3.518664 5.447782 -1.991258 -0.867493 8.510305 5.511718 8.137412 
-0.918460 49.284847 0.463871 -10.374190 -2.434848 4.202888 0.000000 0.000000 0.000000 11.167978 5.559343 7.379026 35.723068 -2.851493 -0.401352 -21.724592 2.204694 2.638898 -4.989830 10.509279 24.996344 -91.517838 10.137905 -0.461872 -51.833317 5.251909 76.788612 -17.552904 -9.021428 -55.606499 -7.812528 -11.880638 22.839430 71.988251 6.888153 72.417412 34.073750 -41.871742 43.636265 38.425182 -1.157108 -80.899849 11.832893 10.731190 20.806904 35.798401 30.294201 5.870696 9.871031 -47.354511 -1.302597 29.066980 9.685821 3.722993 4.998281 -2.440254 -1.015581 8.107140 6.653247 8.072124 
-0.925266 49.262127 0.448052 -10.049896 -2.620998 3.861418 0.000000 0.000000 0.000000 10.900351 5.723477 7.420792 35.673489 -2.812435 -0.391113 -21.530842 1.990562 2.316109 -4.873736 10.939565 24.995955 -92.121460 9.905662 -0.091090 -51.428493 5.101935 75.943542 -16.953428 -8.921633 -55.777996 -7.725711 -12.092685 22.829290 72.218536 7.067682 72.514938 33.570831 -41.798447 42.823372 38.628357 -1.700468 -80.987816 11.120243 10.936020 20.935955 37.700150 28.827948 5.340705 8.797470 -43.484756 -4.701592 28.780508 9.889879 3.799763 4.903574 -2.671042 -1.072170 8.068018 6.785733 7.090502 
-0.878899 49.242432 0.422828 -9.663424 -2.455638 3.763003 0.000000 0.000000 0.000000 10.551847 5.597587 7.418852 35.624393 -2.773373 -0.391112 -21.518566 1.746895 2.081195 -5.053189 11.191422 24.998289 -92.576027 9.733987 0.171536 -51.433464 4.973476 75.756454 -16.873600 -8.739084 -55.802750 -7.844245 -12.287201 22.773020 72.403946 7.114826 72.630325 33.030136 -41.681305 41.615185 38.435707 -2.251431 -81.048676 9.954612 10.709217 20.854935 40.317837 26.514061 4.524669 7.571352 -37.128452 -7.618911 28.326017 9.637448 3.719817 4.977005 -2.635728 -1.050379 7.982856 6.533606 6.453273 
-0.767465 49.252872 0.399790 -9.407165 -2.085179 3.830561 0.000000 0.000000 0.000000 10.285008 5.385135 7.367424 35.750092 -2.656191 -0.381355 -21.712271 1.483676 1.758487 -5.515381 10.839715 24.994944 -92.695625 9.827540 0.263059 -52.011486 5.218115 76.601624 -17.629141 -8.839700 -55.524620 -8.155962 -12.439271 22.678705 72.087273 6.885157 72.485352 33.581856 -41.555119 41.379402 38.128986 -3.038024 -81.090179 8.541944 10.125615 20.656403 44.163830 22.304522 3.214731 5.774422 -24.886635 -6.500751 27.911661 9.020962 3.536362 5.079554 -2.310492 -0.981681 7.723999 6.126222 6.441363 
-0.715206 49.275192 0.428507 -9.628774 -2.104950 3.713093 0.000000 0.000000 0.000000 10.556861 5.568658 7.409130 35.674088 -2.900323 -0.391607 -21.584572 1.805771 1.778307 -5.345654 10.540187 24.989361 -92.279808 9.870936 0.000656 -51.809643 4.869091 76.853531 -17.869921 -9.108683 -55.350277 -7.822796 -12.612431 22.725515 72.288391 6.867185 72.607811 33.152386 -41.839005 41.238876 38.291325 -2.828521 -81.092369 8.765516 10.329991 20.734200 45.391483 17.704756 2.026391 5.273942 -15.551116 -7.972865 28.107082 8.894051 3.488685 5.258517 -2.292420 -0.977805 7.930431 6.699760 6.598421 
-0.681521 49.293671 0.448310 -9.899153 -2.231735 3.674410 0.000000 0.000000 0.000000 10.838884 5.819798 7.460643 35.636066 -2.978443 -0.401372 -21.534149 1.942505 1.700228 -5.423413 10.450584 24.991240 -92.042824 10.010732 -0.149736 -51.855572 4.718453 77.392937 -18.189220 -9.295944 -55.175766 -7.788485 -12.699858 22.715197 72.383080 6.966219 72.644012 32.810123 -41.806900 41.099243 38.208900 -2.669640 -81.064781 8.940884 10.690530 20.874908 46.172138 13.613723 1.080701 4.787517 -8.054103 -10.902535 28.213778 8.952540 3.514731 5.647727 -2.293117 -0.921906 8.062618 6.913669 6.805166 
-0.646384 49.318745 0.461088 -10.184543 -2.288985 4.124040 0.000000 0.000000 0.000000 11.102910 5.955093 7.482075 35.661110 -2.558540 -0.371596 -21.616350 1.796341 1.397329 -6.169483 10.604455 24.989649 -91.884941 10.144271 -0.234367 -52.121410 4.688709 78.263863 -18.747463 -9.175937 -55.033981 -8.326289 -12.427819 22.635857 72.094193 6.961749 72.465912 32.695625 -41.565292 41.066330 38.113804 -2.463055 -81.042854 8.792104 10.962215 21.000771 46.686794 10.168661 0.268584 4.379470 -1.664475 -14.575068 28.236547 8.982673 3.517546 6.140269 -2.078873 -0.836656 8.066799 6.535727 6.984953 
-0.633073 49.356823 0.481458 -10.538073 -2.296319 4.886708 0.000000 0.000000 0.000000 11.385351 5.965042 7.462651 35.820602 -1.787081 -0.322718 -21.776121 1.337730 0.889114 -7.196490 10.715837 24.987560 -91.725983 10.102352 -0.321109 -52.146126 4.837199 78.366463 -18.890327 -9.098117 -54.992699 -8.976833 -11.786306 22.603334 71.499687 6.746254 72.144638 32.901722 -41.538719 41.285473 38.119339 -2.248696 -81.025505 8.649177 10.945258 20.982334 46.855335 9.893686 0.212534 4.480850 -0.557070 -15.303218 28.480350 9.031530 3.553217 6.306760 -1.796987 -0.764151 7.947696 5.772506 6.907326 
